<?xml version="1.0" encoding="utf-8"?>
<!-- Generator: Adobe Illustrator 18.1.1, SVG Export Plug-In . SVG Version: 6.00 Build 0)  -->
<svg version="1.1"  xmlns="http://www.w3.org/2000/svg" xmlns:xlink="http://www.w3.org/1999/xlink" x="0px" y="0px"
	 viewBox="0 123.6 612 604.4" enable-background="new 0 123.6 612 604.4" xml:space="preserve">
<path d="M340.5,461.7h-67.8h-67.8v67.8v67.8v67.8h67.8h67.8h67.8v-67.8v-67.8v-67.8H340.5z M340.5,597.3h-67.8v-67.8h67.8V597.3z"/>
<g>
	<polygon points="1.4,461.7 1.4,529.5 69.2,529.5 69.2,461.7 69.2,393.9 1.4,393.9 	"/>
	<path d="M543.9,393.9V327v-67.8h-67.8v-1v-66.9v-67.8h-67.8v67.8h-67.8h-67.8h-67.8v-67.8H137v67.8v66.9H69.2v67.8v67.8H137v1h67.8
		h67.8v66.9h67.8v-66.9h67.8h67.8h67.8v66.9v67.8h67.8v-67.8v-67.8H543.9z M204.8,327v-67.8h67.8V327H204.8z M408.3,327h-67.8v-67.8
		h67.8v66.9"/>
</g>
</svg>
