<?xml version="1.0" encoding="utf-8"?>
<!-- Generator: Adobe Illustrator 18.1.1, SVG Export Plug-In . SVG Version: 6.00 Build 0)  -->
<svg version="1.1" id="Layer_1" xmlns="http://www.w3.org/2000/svg" xmlns:xlink="http://www.w3.org/1999/xlink" x="0px" y="0px"
	 viewBox="0 0 612 489.6" enable-background="new 0 0 612 489.6" xml:space="preserve">
<g>
	<path fill="#704949" d="M556.4,55.6V178h-55.6v-66.8H445V55.6h-55.6v55.6H222.6V55.6H167v55.6h-55.6V178H55.7V55.6H0v244.8h55.6
		v77.8h55.6v55.6h55.6v-55.6H445v55.6h55.6v-55.6h55.6v-89H612V55.6H556.4z M222.6,244.8H167v-55.6h55.6V244.8z M445,244.8h-55.6
		v-55.6H445V244.8z"/>
	<rect x="111.2" y="0" fill="#704949" width="55.6" height="55.6"/>
	<rect x="445" y="0" fill="#704949" width="55.6" height="55.6"/>
	<rect x="55.6" y="434" fill="#704949" width="55.6" height="55.6"/>
	<rect x="500.8" y="434" fill="#704949" width="55.6" height="55.6"/>
</g>
<g>
	<rect x="250.1" y="322.5" width="55.6" height="55.6"/>
	<rect x="306.3" y="378.2" width="55.6" height="55.6"/>
	<rect x="361.9" y="434" width="55.6" height="55.6"/>
	<rect x="194.5" y="266.9" width="55.6" height="55.6"/>
	<rect x="361.9" y="266.9" width="55.6" height="55.6"/>
	<rect x="194.5" y="434" width="55.6" height="55.6"/>
</g>
</svg>
