<?xml version="1.0" encoding="utf-8"?>
<!-- Generator: Adobe Illustrator 18.1.1, SVG Export Plug-In . SVG Version: 6.00 Build 0)  -->
<svg version="1.1" id="Layer_1" xmlns="http://www.w3.org/2000/svg" xmlns:xlink="http://www.w3.org/1999/xlink" x="0px" y="0px"
	 viewBox="0 0 612 792" enable-background="new 0 0 612 792" xml:space="preserve">
<g>
	<rect x="277.9" y="633.1" width="48.7" height="48.7"/>
	<rect x="2.8" y="363.4" width="48.7" height="48.7"/>
	<rect x="566.1" y="363.4" width="48.7" height="48.7"/>
	<rect x="277.9" y="72.1" width="48.7" height="48.7"/>
	<rect x="476.2" y="556" transform="matrix(-0.7071 0.7071 -0.7071 -0.7071 1264.9222 636.7477)" width="48.7" height="48.7"/>
	<rect x="90.9" y="559.8" transform="matrix(-0.7071 0.7071 -0.7071 -0.7071 609.9088 915.6835)" width="48.7" height="48.7"/>
	<rect x="489.3" y="161.5" transform="matrix(-0.7071 0.7071 -0.7071 -0.7071 1008.2748 -45.9161)" width="48.7" height="48.7"/>
	<rect x="79.6" y="159.3" transform="matrix(-0.7071 0.7071 -0.7071 -0.7071 307.3195 240.0597)" width="48.7" height="48.7"/>
</g>
<g id="CAbesa">
	<path d="M375.4,224.9H229.2v49.7h-48.7v48.7h-48.8v97.5h48.7v48.8h48.7v51.2h48.8v48.8h48.7v-48.7h48.7v-51.2h48.7V421h48.9v-97.6
		h-48.7v-48.7h-48.7L375.4,224.9L375.4,224.9L375.4,224.9z M424.2,323.4l-0.1,97.6l-99.1-0.4l0-96.7L424.2,323.4z M180.4,420.9
		v-97.5H277v97.5H180.4z"/>
	<rect x="179.1" y="518.6" width="50" height="50"/>
	<rect x="375.1" y="520.9" width="50" height="50"/>
</g>
</svg>
