<?xml version="1.0" encoding="utf-8"?>
<!-- Generator: Adobe Illustrator 18.1.1, SVG Export Plug-In . SVG Version: 6.00 Build 0)  -->
<svg version="1.1" id="Layer_1" xmlns="http://www.w3.org/2000/svg" xmlns:xlink="http://www.w3.org/1999/xlink" x="0px" y="0px"
	 viewBox="0 0 31 29" enable-background="new 0 0 31 29" xml:space="preserve">
<g>
	<rect x="2" y="24" width="5" height="5"/>
	<rect x="9" y="24" width="5" height="5"/>
	<rect x="17" y="24" width="5" height="5"/>
	<rect x="24" y="24" width="5" height="5"/>
</g>
<path d="M27,8V4h-2V0h-4v4H10V0H6v4H4v4H0v16h2v-4h5v4h2v-4h5v4h3v-4h5v4h2v-4h5v4h2V8H27z M14,11H7V8h7V11z M25,11h-7V8h7V11z"/>
</svg>
