<?xml version="1.0" encoding="utf-8"?>
<!-- Generator: Adobe Illustrator 18.1.1, SVG Export Plug-In . SVG Version: 6.00 Build 0)  -->
<svg version="1.1" id="Layer_1" xmlns="http://www.w3.org/2000/svg" xmlns:xlink="http://www.w3.org/1999/xlink" x="0px" y="0px"
	 viewBox="0 -113.6 612 905.6" enable-background="new 0 -113.6 612 905.6" xml:space="preserve">
<g>
	<path d="M18,432v144h72v72h72v72h72v72h144v-72h72v-72h72v-72h72V432H450 M378,504h72v72h-72V504z M162,504h72v72h-72V504z" fill="red"/>
</g>
<polygon points="571.2,140.9 418.5,-11.8 316.7,90 265.8,39.1 367.6,-62.7 316.7,-113.6 163.9,39.1 265.8,140.9 214.8,191.9 113,90 
	62.1,140.9 214.8,293.7 316.7,191.9 367.6,242.8 265.8,344.6 316.7,395.5 469.4,242.8 367.6,140.9 418.5,90 520.3,191.9 "/>
</svg>
