<svg version="1.1" id="Layer_1" xmlns="http://www.w3.org/2000/svg" xmlns:xlink="http://www.w3.org/1999/xlink" x="0px" y="0px"
	 viewBox="0 0 612 792" enable-background="new 0 0 612 792" xml:space="preserve">
<rect x="131.8" y="501.2" display="none" width="1.9" height="2"/>
<rect x="-39" y="-18" stroke="#FFFFFF" stroke-miterlimit="10" width="692" height="856"/>
<rect x="69.8" y="500.4" transform="matrix(-0.7071 -0.7071 0.7071 -0.7071 -234.0694 904.8676)" opacity="0.73" fill="#FFFFFF" enable-background="new    " width="1.1" height="1"/>
<rect x="154.2" y="375" transform="matrix(-0.7071 -0.7071 0.7071 -0.7071 -0.3578 752.8345)" opacity="0.73" fill="#FFFFFF" enable-background="new    " width="3.1" height="2.9"/>
<rect x="82.9" y="112.4" transform="matrix(-0.7071 -0.7071 0.7071 -0.7071 64.2505 255.3352)" opacity="0.73" fill="#FFFFFF" enable-background="new    " width="4.2" height="3.9"/>
<rect x="591.2" y="139.9" transform="matrix(-0.7071 -0.7071 0.7071 -0.7071 910.9299 658.119)" opacity="0.73" fill="#FFFFFF" enable-background="new    " width="1.1" height="1"/>
<rect x="421" y="194.6" transform="matrix(-0.7071 -0.7071 0.7071 -0.7071 583.3199 634.694)" opacity="0.73" fill="#FFFFFF" enable-background="new    " width="4.2" height="3.9"/>
<rect x="149.9" y="52.9" transform="matrix(-0.7071 -0.7071 0.7071 -0.7071 220.6978 201.0883)" opacity="0.73" fill="#FFFFFF" enable-background="new    " width="4.2" height="3.9"/>
<rect x="147" y="156.7" transform="matrix(-0.7071 -0.7071 0.7071 -0.7071 142.999 377.4654)" opacity="0.73" fill="#FFFFFF" enable-background="new    " width="5.3" height="4.9"/>
<rect x="57.4" y="339.5" transform="matrix(-0.7071 -0.7071 0.7071 -0.7071 -140.4655 623.6423)" opacity="0.73" fill="#FFFFFF" enable-background="new    " width="3.1" height="2.9"/>
<rect x="502.9" y="243.8" transform="matrix(-0.7071 -0.7071 0.7071 -0.7071 688.3259 776.5494)" opacity="0.73" fill="#FFFFFF" enable-background="new    " width="4.2" height="3.9"/>
<rect x="230" y="303.6" transform="matrix(-0.7071 -0.7071 0.7071 -0.7071 180.2061 685.7176)" opacity="0.73" fill="#FFFFFF" enable-background="new    " width="4.2" height="3.9"/>
<rect x="291.3" y="151" transform="matrix(-0.7071 -0.7071 0.7071 -0.7071 392.6724 468.5457)" opacity="0.73" fill="#FFFFFF" enable-background="new    " width="4.2" height="3.9"/>
<rect x="514" y="320.7" transform="matrix(-0.7071 -0.7071 0.7071 -0.7071 652.8403 915.6727)" opacity="0.73" fill="#FFFFFF" enable-background="new    " width="4.2" height="3.9"/>
<rect x="29.4" y="440.2" transform="matrix(-0.7071 -0.7071 0.7071 -0.7071 -258.9147 777.0153)" opacity="0.73" fill="#FFFFFF" enable-background="new    " width="4.2" height="3.9"/>
<rect x="39.4" y="327.1" transform="matrix(-0.7071 -0.7071 0.7071 -0.7071 -161.2489 592.2404)" opacity="0.73" fill="#FFFFFF" enable-background="new    " width="5.3" height="4.9"/>
<rect x="487.2" y="419" transform="matrix(-0.7071 -0.7071 0.7071 -0.7071 537.6706 1064.5634)" opacity="0.73" fill="#FFFFFF" enable-background="new    " width="4.2" height="3.9"/>
<rect x="493.7" y="330.6" transform="matrix(-0.7071 -0.7071 0.7071 -0.7071 611.1888 918.2398)" opacity="0.73" fill="#FFFFFF" enable-background="new    " width="4.2" height="3.9"/>
<rect x="-1.8" y="630" transform="matrix(-0.7071 -0.7071 0.7071 -0.7071 -446.9096 1077.8085)" opacity="0.73" fill="#FFFFFF" enable-background="new    " width="3.1" height="2.9"/>
<rect x="28.7" y="345.1" transform="matrix(-0.7071 -0.7071 0.7071 -0.7071 -192.2132 615.5065)" opacity="0.73" fill="#FFFFFF" enable-background="new    " width="5.3" height="4.9"/>
<rect x="481.8" y="724.5" transform="matrix(-0.7071 -0.7071 0.7071 -0.7071 311.206 1579.8718)" opacity="0.73" fill="#FFFFFF" enable-background="new    " width="2" height="1.9"/>
<rect x="160.2" y="561.3" transform="matrix(-0.7071 -0.7071 0.7071 -0.7071 -121.2343 1076.3313)" opacity="0.73" fill="#FFFFFF" enable-background="new    " width="4.2" height="3.9"/>
<rect x="26.6" y="404.3" transform="matrix(-0.7071 -0.7071 0.7071 -0.7071 -238.3014 713.7966)" opacity="0.73" fill="#FFFFFF" enable-background="new    " width="4.2" height="3.9"/>
<rect x="538.6" y="667.9" transform="matrix(-0.7071 -0.7071 0.7071 -0.7071 447.7592 1522.1704)" opacity="0.73" fill="#FFFFFF" enable-background="new    " width="1.1" height="1"/>
<rect x="520.6" y="267.1" transform="matrix(-0.7071 -0.7071 0.7071 -0.7071 700.4454 825.3981)" opacity="0.73" fill="#FFFFFF" enable-background="new    " width="1.1" height="1"/>
<rect x="228.2" y="91.7" transform="matrix(-0.7071 -0.7071 0.7071 -0.7071 325.2368 319.1678)" opacity="0.73" fill="#FFFFFF" enable-background="new    " width="1.1" height="1"/>
<rect x="483.7" y="672.1" transform="matrix(-0.7071 -0.7071 0.7071 -0.7071 351.147 1490.6033)" opacity="0.73" fill="#FFFFFF" enable-background="new    " width="1.1" height="1"/>
<rect x="323.2" y="492.4" transform="matrix(-0.7071 -0.7071 0.7071 -0.7071 205.2554 1072.6469)" opacity="0.73" fill="#FFFFFF" enable-background="new    " width="3.1" height="2.9"/>
<rect x="16.3" y="302.5" transform="matrix(-0.7071 -0.7071 0.7071 -0.7071 -183.3136 533.9954)" opacity="0.73" fill="#FFFFFF" enable-background="new    " width="5.3" height="4.9"/>
<rect x="138.4" y="523.7" transform="matrix(-0.7071 -0.7071 0.7071 -0.7071 -132.4213 995.4185)" opacity="0.73" fill="#FFFFFF" enable-background="new    " width="3.1" height="2.9"/>
<rect x="216.3" y="379.4" transform="matrix(-0.7071 -0.7071 0.7071 -0.7071 103.803 806.7043)" opacity="0.73" fill="#FFFFFF" enable-background="new    " width="5.3" height="4.9"/>
<rect x="154.9" y="404.6" transform="matrix(-0.7071 -0.7071 0.7071 -0.7071 -21.0986 801.3926)" opacity="0.73" fill="#FFFFFF" enable-background="new    " width="1.1" height="1"/>
<rect x="596.9" y="354" transform="matrix(-0.7071 -0.7071 0.7071 -0.7071 770.8574 1031.1559)" opacity="0.73" fill="#FFFFFF" enable-background="new    " width="4.2" height="3.9"/>
<rect x="430.8" y="223.6" transform="matrix(-0.7071 -0.7071 0.7071 -0.7071 579.4352 691.1321)" opacity="0.73" fill="#FFFFFF" enable-background="new    " width="4.2" height="3.9"/>
<rect x="388.9" y="565.6" transform="matrix(-0.7071 -0.7071 0.7071 -0.7071 265.0236 1242.9037)" opacity="0.73" fill="#FFFFFF" enable-background="new    " width="2" height="1.9"/>
<rect x="474.3" y="510.8" transform="matrix(-0.7071 -0.7071 0.7071 -0.7071 450.755 1212.1245)" opacity="0.73" fill="#FFFFFF" enable-background="new    " width="4.2" height="3.9"/>
<rect x="429.8" y="123.8" transform="matrix(-0.7071 -0.7071 0.7071 -0.7071 647.2552 517.5766)" opacity="0.73" fill="#FFFFFF" enable-background="new    " width="2" height="1.9"/>
<rect x="531.7" y="482.1" transform="matrix(-0.7071 -0.7071 0.7071 -0.7071 568.3279 1202.5065)" opacity="0.73" fill="#FFFFFF" enable-background="new    " width="3.1" height="2.9"/>
<rect x="86.3" y="608.8" transform="matrix(-0.7071 -0.7071 0.7071 -0.7071 -280.9654 1105.0334)" opacity="0.73" fill="#FFFFFF" enable-background="new    " width="4.2" height="3.9"/>
<rect x="467.1" y="246.1" transform="matrix(-0.7071 -0.7071 0.7071 -0.7071 624.3817 752.7307)" opacity="0.73" fill="#FFFFFF" enable-background="new    " width="2" height="1.9"/>
<rect x="459.2" y="524.4" transform="matrix(-0.7071 -0.7071 0.7071 -0.7071 415.3273 1224.7683)" opacity="0.73" fill="#FFFFFF" enable-background="new    " width="4.2" height="3.9"/>
<rect x="265.5" y="357" transform="matrix(-0.7071 -0.7071 0.7071 -0.7071 203.5912 803.2371)" opacity="0.73" fill="#FFFFFF" enable-background="new    " width="5.3" height="4.9"/>
<rect x="390.8" y="442.3" transform="matrix(-0.7071 -0.7071 0.7071 -0.7071 356.6094 1036.2565)" opacity="0.73" fill="#FFFFFF" enable-background="new    " width="4.2" height="3.9"/>
<rect x="326.9" y="413.5" transform="matrix(-0.7071 -0.7071 0.7071 -0.7071 268.5101 943.1227)" opacity="0.73" fill="#FFFFFF" enable-background="new    " width="5.3" height="4.9"/>
<rect x="152.6" y="250.2" transform="matrix(-0.7071 -0.7071 0.7071 -0.7071 85.2593 538.5406)" opacity="0.73" fill="#FFFFFF" enable-background="new    " width="3.1" height="2.9"/>
<rect x="20.9" y="188.7" transform="matrix(-0.7071 -0.7071 0.7071 -0.7071 -97.212 338.1303)" opacity="0.73" fill="#FFFFFF" enable-background="new    " width="1.1" height="1"/>
<rect x="143" y="202.8" transform="matrix(-0.7071 -0.7071 0.7071 -0.7071 102.9307 452.0738)" opacity="0.73" fill="#FFFFFF" enable-background="new    " width="4.2" height="3.9"/>
<rect x="291.9" y="378.5" transform="matrix(-0.7071 -0.7071 0.7071 -0.7071 233.4561 858.6262)" opacity="0.73" fill="#FFFFFF" enable-background="new    " width="5.3" height="4.9"/>
<rect x="219" y="290.5" transform="matrix(-0.7071 -0.7071 0.7071 -0.7071 171.2306 656.8441)" opacity="0.73" fill="#FFFFFF" enable-background="new    " width="5.3" height="4.9"/>
<rect x="345.1" y="565.2" transform="matrix(-0.7071 -0.7071 0.7071 -0.7071 192.3491 1214.9338)" opacity="0.73" fill="#FFFFFF" enable-background="new    " width="5.3" height="4.9"/>
<rect x="552.8" y="263.7" transform="matrix(-0.7071 -0.7071 0.7071 -0.7071 759.9854 847.1177)" opacity="0.73" fill="#FFFFFF" enable-background="new    " width="5.3" height="4.9"/>
<rect x="486.7" y="155.7" transform="matrix(-0.7071 -0.7071 0.7071 -0.7071 722.9425 614.6729)" opacity="0.73" fill="#FFFFFF" enable-background="new    " width="4.2" height="3.9"/>
<rect x="272.6" y="641.4" transform="matrix(-0.7071 -0.7071 0.7071 -0.7071 13.4674 1291.2089)" opacity="0.73" fill="#FFFFFF" enable-background="new    " width="3.1" height="2.9"/>
<rect x="121.9" y="307.6" transform="matrix(-0.7071 -0.7071 0.7071 -0.7071 -7.8462 614.9351)" opacity="0.73" fill="#FFFFFF" enable-background="new    " width="3.1" height="2.9"/>
<rect x="63.1" y="314.8" transform="matrix(-0.7071 -0.7071 0.7071 -0.7071 -114.2349 583.2288)" opacity="0.73" fill="#FFFFFF" enable-background="new    " width="1.1" height="1"/>
<rect x="441.9" y="665.5" transform="matrix(-0.7071 -0.7071 0.7071 -0.7071 285.9684 1453.3516)" opacity="0.73" fill="#FFFFFF" enable-background="new    " width="4.2" height="3.9"/>
<rect x="156.4" y="221.1" transform="matrix(-0.7071 -0.7071 0.7071 -0.7071 112.226 491.5544)" opacity="0.73" fill="#FFFFFF" enable-background="new    " width="3.1" height="2.9"/>
<rect x="17.5" y="181.2" transform="matrix(-0.7071 -0.7071 0.7071 -0.7071 -96.6761 325.2307)" opacity="0.73" fill="#FFFFFF" enable-background="new    " width="3.1" height="2.9"/>
<rect x="200.5" y="597.5" transform="matrix(-0.7071 -0.7071 0.7071 -0.7071 -79.1204 1164.0468)" opacity="0.73" fill="#FFFFFF" enable-background="new    " width="2" height="1.9"/>
<rect x="305.6" y="121.1" transform="matrix(-0.7071 -0.7071 0.7071 -0.7071 437.6934 426.3785)" opacity="0.73" fill="#FFFFFF" enable-background="new    " width="3.1" height="2.9"/>
<rect x="203.1" y="541.5" transform="matrix(-0.7071 -0.7071 0.7071 -0.7071 -35.6073 1069.2484)" opacity="0.73" fill="#FFFFFF" enable-background="new    " width="1.1" height="1"/>
<rect x="370.9" y="103.8" transform="matrix(-0.7071 -0.7071 0.7071 -0.7071 560.4202 440.6837)" opacity="0.73" fill="#FFFFFF" enable-background="new    " width="1.1" height="1"/>
<rect x="263" y="135.7" transform="matrix(-0.7071 -0.7071 0.7071 -0.7071 354.0509 419.9024)" opacity="0.73" fill="#FFFFFF" enable-background="new    " width="2" height="1.9"/>
<rect x="381.4" y="727.5" transform="matrix(-0.7071 -0.7071 0.7071 -0.7071 138.8832 1516.3698)" opacity="0.73" fill="#FFFFFF" enable-background="new    " width="4.2" height="3.9"/>
<rect x="116.2" y="218" transform="matrix(-0.7071 -0.7071 0.7071 -0.7071 45.7989 457.9545)" opacity="0.73" fill="#FFFFFF" enable-background="new    " width="3.1" height="2.9"/>
<rect x="461.8" y="132.1" transform="matrix(-0.7071 -0.7071 0.7071 -0.7071 695.9295 554.3104)" opacity="0.73" fill="#FFFFFF" enable-background="new    " width="2" height="1.9"/>
<rect x="494.4" y="224" transform="matrix(-0.7071 -0.7071 0.7071 -0.7071 687.8121 736.7112)" opacity="0.73" fill="#FFFFFF" enable-background="new    " width="4.2" height="3.9"/>
<rect x="101.2" y="419.6" transform="matrix(-0.7071 -0.7071 0.7071 -0.7071 -122.9612 790.2676)" opacity="0.73" fill="#FFFFFF" enable-background="new    " width="2" height="1.9"/>
<rect x="98.7" y="472.3" transform="matrix(-0.7071 -0.7071 0.7071 -0.7071 -163.2944 880.8683)" opacity="0.73" fill="#FFFFFF" enable-background="new    " width="4.2" height="3.9"/>
<rect x="564.8" y="635.7" transform="matrix(-0.7071 -0.7071 0.7071 -0.7071 515.6902 1486.8186)" opacity="0.73" fill="#FFFFFF" enable-background="new    " width="2" height="1.9"/>
<rect x="246.3" y="201.6" transform="matrix(-0.7071 -0.7071 0.7071 -0.7071 280.742 524.4188)" opacity="0.73" fill="#FFFFFF" enable-background="new    " width="5.3" height="4.9"/>
<rect x="524.8" y="214.1" transform="matrix(-0.7071 -0.7071 0.7071 -0.7071 747.3145 742.6779)" opacity="0.73" fill="#FFFFFF" enable-background="new    " width="5.3" height="4.9"/>
<rect x="310.1" y="204.8" transform="matrix(-0.7071 -0.7071 0.7071 -0.7071 387.378 574.9951)" opacity="0.73" fill="#FFFFFF" enable-background="new    " width="5.3" height="4.9"/>
<rect x="393.6" y="314.4" transform="matrix(-0.7071 -0.7071 0.7071 -0.7071 451.8181 819.799)" opacity="0.73" fill="#FFFFFF" enable-background="new    " width="4.2" height="3.9"/>
<rect x="175.6" y="227.6" transform="matrix(-0.7071 -0.7071 0.7071 -0.7071 139.3982 514.0346)" opacity="0.73" fill="#FFFFFF" enable-background="new    " width="1.1" height="1"/>
<rect x="471.1" y="581.8" transform="matrix(-0.7071 -0.7071 0.7071 -0.7071 393.8402 1328.5736)" opacity="0.73" fill="#FFFFFF" enable-background="new    " width="2" height="1.9"/>
<rect x="348.7" y="406.6" transform="matrix(-0.7071 -0.7071 0.7071 -0.7071 310.5327 946.6543)" opacity="0.73" fill="#FFFFFF" enable-background="new    " width="5.3" height="4.9"/>
<rect x="133.2" y="27.8" transform="matrix(-0.7071 -0.7071 0.7071 -0.7071 209.9777 146.4895)" opacity="0.73" fill="#FFFFFF" enable-background="new    " width="4.2" height="3.9"/>
<rect x="402.2" y="392.5" transform="matrix(-0.7071 -0.7071 0.7071 -0.7071 410.6895 958.0615)" opacity="0.73" fill="#FFFFFF" enable-background="new    " width="3.1" height="2.9"/>
<rect x="52.8" y="350" transform="matrix(-0.7071 -0.7071 0.7071 -0.7071 -155.6769 638.3245)" opacity="0.73" fill="#FFFFFF" enable-background="new    " width="3.1" height="2.9"/>
<rect x="344.8" y="247.7" transform="matrix(-0.7071 -0.7071 0.7071 -0.7071 414.4955 668.9583)" opacity="0.73" fill="#FFFFFF" enable-background="new    " width="2" height="1.9"/>
<rect x="600.4" y="446.3" transform="matrix(-0.7071 -0.7071 0.7071 -0.7071 710.9157 1189.9558)" opacity="0.73" fill="#FFFFFF" enable-background="new    " width="3.1" height="2.9"/>
<rect x="186.4" y="570.4" transform="matrix(-0.7071 -0.7071 0.7071 -0.7071 -82.3171 1111.5487)" opacity="0.73" fill="#FFFFFF" enable-background="new    " width="5.3" height="4.9"/>
<rect x="446.6" y="637.7" transform="matrix(-0.7071 -0.7071 0.7071 -0.7071 312.0499 1405.6218)" opacity="0.73" fill="#FFFFFF" enable-background="new    " width="1.1" height="1"/>
<rect x="49.9" y="523.9" transform="matrix(-0.7071 -0.7071 0.7071 -0.7071 -282.9893 934.4697)" opacity="0.73" fill="#FFFFFF" enable-background="new    " width="4.2" height="3.9"/>
<rect x="403.1" y="665.9" transform="matrix(-0.7071 -0.7071 0.7071 -0.7071 218.8563 1425.3781)" opacity="0.73" fill="#FFFFFF" enable-background="new    " width="3.1" height="2.9"/>
<rect x="103.2" y="299.3" transform="matrix(-0.7071 -0.7071 0.7071 -0.7071 -33.1872 588.675)" opacity="0.73" fill="#FFFFFF" enable-background="new    " width="4.2" height="3.9"/>
<rect x="69.3" y="179.4" transform="matrix(-0.7071 -0.7071 0.7071 -0.7071 -5.748 361.2968)" opacity="0.73" fill="#FFFFFF" enable-background="new    " width="5.3" height="4.9"/>
<rect x="89.7" y="549.1" transform="matrix(-0.7071 -0.7071 0.7071 -0.7071 -234.6138 1002.0786)" opacity="0.73" fill="#FFFFFF" enable-background="new    " width="1.1" height="1"/>
<rect x="17.5" y="481.9" transform="matrix(-0.7071 -0.7071 0.7071 -0.7071 -308.6867 839.8604)" opacity="0.73" fill="#FFFFFF" enable-background="new    " width="4.2" height="3.9"/>
<rect x="18.7" y="467.9" transform="matrix(-0.7071 -0.7071 0.7071 -0.7071 -297.8385 814.3143)" opacity="0.73" fill="#FFFFFF" enable-background="new    " width="2" height="1.9"/>
<rect x="430.2" y="99.5" transform="matrix(-0.7071 -0.7071 0.7071 -0.7071 665.1578 476.3651)" opacity="0.73" fill="#FFFFFF" enable-background="new    " width="2" height="1.9"/>
<rect x="134.8" y="357.7" transform="matrix(-0.7071 -0.7071 0.7071 -0.7071 -21.8318 708.2457)" opacity="0.73" fill="#FFFFFF" enable-background="new    " width="2" height="1.9"/>
<rect x="51.1" y="319.3" transform="matrix(-0.7071 -0.7071 0.7071 -0.7071 -137.9017 582.4528)" opacity="0.73" fill="#FFFFFF" enable-background="new    " width="1.1" height="1"/>
<rect x="249.9" y="451.4" transform="matrix(-0.7071 -0.7071 0.7071 -0.7071 108.4025 949.5791)" opacity="0.73" fill="#FFFFFF" enable-background="new    " width="2" height="1.9"/>
<rect x="182.3" y="548.3" transform="matrix(-0.7071 -0.7071 0.7071 -0.7071 -74.8544 1068.3944)" opacity="0.73" fill="#FFFFFF" enable-background="new    " width="3.1" height="2.9"/>
<rect x="390.3" y="398.4" transform="matrix(-0.7071 -0.7071 0.7071 -0.7071 386.2377 959.7052)" opacity="0.73" fill="#FFFFFF" enable-background="new    " width="3.1" height="2.9"/>
<rect x="370.2" y="267.7" transform="matrix(-0.7071 -0.7071 0.7071 -0.7071 444.9395 723.5364)" opacity="0.73" fill="#FFFFFF" enable-background="new    " width="4.2" height="3.9"/>
<rect x="571.1" y="668.1" transform="matrix(-0.7071 -0.7071 0.7071 -0.7071 503.5265 1546.6117)" opacity="0.73" fill="#FFFFFF" enable-background="new    " width="2" height="1.9"/>
<rect x="86.8" y="179" transform="matrix(-0.7071 -0.7071 0.7071 -0.7071 23.2376 370.5169)" opacity="0.73" fill="#FFFFFF" enable-background="new    " width="3.1" height="2.9"/>
<rect x="468.1" y="52.1" transform="matrix(-0.7071 -0.7071 0.7071 -0.7071 764.444 424.6642)" opacity="0.73" fill="#FFFFFF" enable-background="new    " width="4.2" height="3.9"/>
<rect x="71.9" y="266.6" transform="matrix(-0.7071 -0.7071 0.7071 -0.7071 -63.5857 510.7043)" opacity="0.73" fill="#FFFFFF" enable-background="new    " width="4.2" height="3.9"/>
<rect x="228.8" y="179" transform="matrix(-0.7071 -0.7071 0.7071 -0.7071 264.5825 468.6491)" opacity="0.73" fill="#FFFFFF" enable-background="new    " width="1.1" height="1"/>
<rect x="167.2" y="155.4" transform="matrix(-0.7071 -0.7071 0.7071 -0.7071 176.6617 385.8245)" opacity="0.73" fill="#FFFFFF" enable-background="new    " width="2" height="1.9"/>
<rect x="497.2" y="284.5" transform="matrix(-0.7071 -0.7071 0.7071 -0.7071 648.6327 839.6088)" opacity="0.73" fill="#FFFFFF" enable-background="new    " width="2" height="1.9"/>
<rect x="92.9" y="432.5" transform="matrix(-0.7071 -0.7071 0.7071 -0.7071 -146.6515 805.3123)" opacity="0.73" fill="#FFFFFF" enable-background="new    " width="1.1" height="1"/>
<rect x="571.9" y="629.6" transform="matrix(-0.7071 -0.7071 0.7071 -0.7071 532.7898 1482.7754)" opacity="0.73" fill="#FFFFFF" enable-background="new    " width="3.1" height="2.9"/>
<rect x="322" y="706" transform="matrix(-0.7071 -0.7071 0.7071 -0.7071 53.2651 1438.9128)" opacity="0.73" fill="#FFFFFF" enable-background="new    " width="5.3" height="4.9"/>
<rect x="488.6" y="98" transform="matrix(-0.7071 -0.7071 0.7071 -0.7071 765.3697 513.9429)" opacity="0.73" fill="#FFFFFF" enable-background="new    " width="1.1" height="1"/>
<rect x="453.8" y="149.6" transform="matrix(-0.7071 -0.7071 0.7071 -0.7071 671.703 582.3253)" opacity="0.73" fill="#FFFFFF" enable-background="new    " width="5.3" height="4.9"/>
<rect x="251.2" y="206.4" transform="matrix(-0.7071 -0.7071 0.7071 -0.7071 285.1066 534.8132)" opacity="0.73" fill="#FFFFFF" enable-background="new    " width="4.2" height="3.9"/>
<rect x="577.1" y="420.1" transform="matrix(-0.7071 -0.7071 0.7071 -0.7071 689.7361 1128.892)" opacity="0.73" fill="#FFFFFF" enable-background="new    " width="3.1" height="2.9"/>
<rect x="339.2" y="680.4" transform="matrix(-0.7071 -0.7071 0.7071 -0.7071 99.49 1405.0037)" opacity="0.73" fill="#FFFFFF" enable-background="new    " width="3.1" height="2.9"/>
<rect x="434" y="282.1" transform="matrix(-0.7071 -0.7071 0.7071 -0.7071 542.4285 790.7747)" opacity="0.73" fill="#FFFFFF" enable-background="new    " width="2" height="1.9"/>
<rect x="449.9" y="246.5" transform="matrix(-0.7071 -0.7071 0.7071 -0.7071 595.3152 742.4886)" opacity="0.73" fill="#FFFFFF" enable-background="new    " width="3.1" height="2.9"/>
<rect x="427" y="378.6" transform="matrix(-0.7071 -0.7071 0.7071 -0.7071 461.8173 949.5482)" opacity="0.73" fill="#FFFFFF" enable-background="new    " width="1.1" height="1"/>
<rect x="483.8" y="197.8" transform="matrix(-0.7071 -0.7071 0.7071 -0.7071 687.5923 683.2883)" opacity="0.73" fill="#FFFFFF" enable-background="new    " width="3.1" height="2.9"/>
<rect x="244.2" y="4" transform="matrix(-0.7071 -0.7071 0.7071 -0.7071 415.0767 181.8285)" opacity="0.73" fill="#FFFFFF" enable-background="new    " width="2" height="1.9"/>
<rect x="537" y="132.6" transform="matrix(-0.7071 -0.7071 0.7071 -0.7071 824.5811 609.6381)" opacity="0.73" fill="#FFFFFF" enable-background="new    " width="3.1" height="2.9"/>
<rect x="588.3" y="254.4" transform="matrix(-0.7071 -0.7071 0.7071 -0.7071 825.4527 852.6431)" opacity="0.73" fill="#FFFFFF" enable-background="new    " width="2" height="1.9"/>
<rect x="446.8" y="411.7" transform="matrix(-0.7071 -0.7071 0.7071 -0.7071 473.8405 1023.489)" opacity="0.73" fill="#FFFFFF" enable-background="new    " width="4.2" height="3.9"/>
<rect x="327.7" y="210.7" transform="matrix(-0.7071 -0.7071 0.7071 -0.7071 412.0075 595.0566)" opacity="0.73" fill="#FFFFFF" enable-background="new    " width="3.1" height="2.9"/>
<rect x="277" y="667.7" transform="matrix(-0.7071 -0.7071 0.7071 -0.7071 3.4785 1341.7802)" opacity="0.73" fill="#FFFFFF" enable-background="new    " width="5.3" height="4.9"/>
<rect x="77.8" y="173.3" transform="matrix(-0.7071 -0.7071 0.7071 -0.7071 11.3024 353.2143)" opacity="0.73" fill="#FFFFFF" enable-background="new    " width="2" height="1.9"/>
<rect x="129.8" y="222.7" transform="matrix(-0.7071 -0.7071 0.7071 -0.7071 65.1573 474.2381)" opacity="0.73" fill="#FFFFFF" enable-background="new    " width="2" height="1.9"/>
<rect x="387.1" y="660.9" transform="matrix(-0.7071 -0.7071 0.7071 -0.7071 195.1129 1405.6178)" opacity="0.73" fill="#FFFFFF" enable-background="new    " width="3.1" height="2.9"/>
<rect x="511.5" y="496.4" transform="matrix(-0.7071 -0.7071 0.7071 -0.7071 523.838 1212.6052)" opacity="0.73" fill="#FFFFFF" enable-background="new    " width="3.1" height="2.9"/>
<rect x="250.8" y="576.3" transform="matrix(-0.7071 -0.7071 0.7071 -0.7071 22.8996 1165.8909)" opacity="0.73" fill="#FFFFFF" enable-background="new    " width="4.2" height="3.9"/>
<rect x="423.1" y="622.5" transform="matrix(-0.7071 -0.7071 0.7071 -0.7071 282.6894 1363.0994)" opacity="0.73" fill="#FFFFFF" enable-background="new    " width="1.1" height="1"/>
<rect x="256.1" y="595.7" transform="matrix(-0.7071 -0.7071 0.7071 -0.7071 16.5557 1199.3082)" opacity="0.73" fill="#FFFFFF" enable-background="new    " width="1.1" height="1"/>
<rect x="291.2" y="66.9" transform="matrix(-0.7071 -0.7071 0.7071 -0.7071 451.5159 323.6494)" opacity="0.73" fill="#FFFFFF" enable-background="new    " width="3.1" height="2.9"/>
<rect x="81.9" y="764.7" transform="matrix(-0.7071 -0.7071 0.7071 -0.7071 -398.0415 1369.3633)" opacity="0.73" fill="#FFFFFF" enable-background="new    " width="5.3" height="4.9"/>
<rect x="58.2" y="340.2" transform="matrix(-0.7071 -0.7071 0.7071 -0.7071 -139.5608 625.5029)" opacity="0.73" fill="#FFFFFF" enable-background="new    " width="3.1" height="2.9"/>
<rect x="186.4" y="28.1" transform="matrix(-0.7071 -0.7071 0.7071 -0.7071 301.0764 185.8463)" opacity="0.73" fill="#FFFFFF" enable-background="new    " width="5.3" height="4.9"/>
<rect x="209.6" y="71.3" transform="matrix(-0.7071 -0.7071 0.7071 -0.7071 308.4497 272.1887)" opacity="0.73" fill="#FFFFFF" enable-background="new    " width="2" height="1.9"/>
<rect x="346" y="194.6" transform="matrix(-0.7071 -0.7071 0.7071 -0.7071 455.2694 581.7351)" opacity="0.73" fill="#FFFFFF" enable-background="new    " width="4.2" height="3.9"/>
<rect x="26.7" y="387.8" transform="matrix(-0.7071 -0.7071 0.7071 -0.7071 -226.4266 685.7732)" opacity="0.73" fill="#FFFFFF" enable-background="new    " width="4.2" height="3.9"/>
<rect x="282.5" y="627.9" transform="matrix(-0.7071 -0.7071 0.7071 -0.7071 41.0502 1277.6954)" opacity="0.73" fill="#FFFFFF" enable-background="new    " width="5.3" height="4.9"/>
<rect x="467.3" y="221" transform="matrix(-0.7071 -0.7071 0.7071 -0.7071 644.2451 713.7811)" opacity="0.73" fill="#FFFFFF" enable-background="new    " width="5.3" height="4.9"/>
<rect x="189.4" y="427.4" transform="matrix(-0.7071 -0.7071 0.7071 -0.7071 23.3339 868.4329)" opacity="0.73" fill="#FFFFFF" enable-background="new    " width="4.2" height="3.9"/>
<rect x="526.8" y="331.4" transform="matrix(-0.7071 -0.7071 0.7071 -0.7071 667.79 944.2569)" opacity="0.73" fill="#FFFFFF" enable-background="new    " width="5.3" height="4.9"/>
<rect x="12" y="313.3" transform="matrix(-0.7071 -0.7071 0.7071 -0.7071 -199.4296 546.817)" opacity="0.73" fill="#FFFFFF" enable-background="new    " width="3.1" height="2.9"/>
<rect x="476.5" y="393.1" transform="matrix(-0.7071 -0.7071 0.7071 -0.7071 536.5561 1010.2881)" opacity="0.73" fill="#FFFFFF" enable-background="new    " width="2" height="1.9"/>
<rect x="190.9" y="600.9" transform="matrix(-0.7071 -0.7071 0.7071 -0.7071 -97.3759 1164.3407)" opacity="0.73" fill="#FFFFFF" enable-background="new    " width="3.1" height="2.9"/>
<rect x="236.8" y="382.5" transform="matrix(-0.7071 -0.7071 0.7071 -0.7071 134.3709 821.6912)" opacity="0.73" fill="#FFFFFF" enable-background="new    " width="1.1" height="1"/>
<rect x="605.6" y="553.2" transform="matrix(-0.7071 -0.7071 0.7071 -0.7071 643.213 1373.8016)" opacity="0.73" fill="#FFFFFF" enable-background="new    " width="1.1" height="1"/>
<rect x="74.3" y="540.4" transform="matrix(-0.7071 -0.7071 0.7071 -0.7071 -253.1367 979.8336)" opacity="0.73" fill="#FFFFFF" enable-background="new    " width="4.2" height="3.9"/>
<rect x="210.6" y="152.8" transform="matrix(-0.7071 -0.7071 0.7071 -0.7071 254.2846 415.7543)" opacity="0.73" fill="#FFFFFF" enable-background="new    " width="5.3" height="4.9"/>
<rect x="150.9" y="194.1" transform="matrix(-0.7071 -0.7071 0.7071 -0.7071 121.3295 440.2829)" opacity="0.73" fill="#FFFFFF" enable-background="new    " width="2" height="1.9"/>
<rect x="283.6" y="160.5" transform="matrix(-0.7071 -0.7071 0.7071 -0.7071 372.2419 478.0614)" opacity="0.73" fill="#FFFFFF" enable-background="new    " width="3.1" height="2.9"/>
<rect x="78" y="630.1" transform="matrix(-0.7071 -0.7071 0.7071 -0.7071 -309.5982 1136.8881)" opacity="0.73" fill="#FFFFFF" enable-background="new    " width="5.3" height="4.9"/>
<rect x="173.4" y="697" transform="matrix(-0.7071 -0.7071 0.7071 -0.7071 -194.5823 1317.2753)" opacity="0.73" fill="#FFFFFF" enable-background="new    " width="4.2" height="3.9"/>
<rect x="114.2" y="482.8" transform="matrix(-0.7071 -0.7071 0.7071 -0.7071 -145.8692 906.202)" opacity="0.73" fill="#FFFFFF" enable-background="new    " width="1.1" height="1"/>
<rect x="601.3" y="315.1" transform="matrix(-0.7071 -0.7071 0.7071 -0.7071 806.4169 969.0897)" opacity="0.73" fill="#FFFFFF" enable-background="new    " width="5.3" height="4.9"/>
<rect x="78" y="525" transform="matrix(-0.7071 -0.7071 0.7071 -0.7071 -237.5399 952.63)" opacity="0.73" fill="#FFFFFF" enable-background="new    " width="1.1" height="1"/>
<rect x="293.4" y="492.8" transform="matrix(-0.7071 -0.7071 0.7071 -0.7071 152.9682 1049.9788)" opacity="0.73" fill="#FFFFFF" enable-background="new    " width="1.1" height="1"/>
<rect x="310.9" y="785.7" transform="matrix(-0.7071 -0.7071 0.7071 -0.7071 -21.9489 1567.1398)" opacity="0.73" fill="#FFFFFF" enable-background="new    " width="5.3" height="4.9"/>
<rect x="116.3" y="109.3" transform="matrix(-0.7071 -0.7071 0.7071 -0.7071 122.8558 272.4294)" opacity="0.73" fill="#FFFFFF" enable-background="new    " width="3.1" height="2.9"/>
<rect x="518.6" y="514.5" transform="matrix(-0.7071 -0.7071 0.7071 -0.7071 523.186 1248.5419)" opacity="0.73" fill="#FFFFFF" enable-background="new    " width="3.1" height="2.9"/>
<rect x="263" y="334.5" transform="matrix(-0.7071 -0.7071 0.7071 -0.7071 215.1817 763.0684)" opacity="0.73" fill="#FFFFFF" enable-background="new    " width="5.3" height="4.9"/>
<rect x="354.6" y="419.3" transform="matrix(-0.7071 -0.7071 0.7071 -0.7071 310.4871 970.0469)" opacity="0.73" fill="#FFFFFF" enable-background="new    " width="3.1" height="2.9"/>
<rect x="497.1" y="37.7" transform="matrix(-0.7071 -0.7071 0.7071 -0.7071 824.6633 421.9166)" opacity="0.73" fill="#FFFFFF" enable-background="new    " width="5.3" height="4.9"/>
<rect x="132.1" y="389.4" transform="matrix(-0.7071 -0.7071 0.7071 -0.7071 -47.5933 762.9496)" opacity="0.73" fill="#FFFFFF" enable-background="new    " width="4.2" height="3.9"/>
<rect x="342.4" y="596.9" transform="matrix(-0.7071 -0.7071 0.7071 -0.7071 164.0146 1264.6255)" opacity="0.73" fill="#FFFFFF" enable-background="new    " width="3.1" height="2.9"/>
<rect x="270.9" y="700.8" transform="matrix(-0.7071 -0.7071 0.7071 -0.7071 -30.8817 1392.7506)" opacity="0.73" fill="#FFFFFF" enable-background="new    " width="4.2" height="3.9"/>
<rect x="396.2" y="287.2" transform="matrix(-0.7071 -0.7071 0.7071 -0.7071 473.8563 771.7419)" opacity="0.73" fill="#FFFFFF" enable-background="new    " width="1.1" height="1"/>
<rect x="214.2" y="461.7" transform="matrix(-0.7071 -0.7071 0.7071 -0.7071 39.7772 940.9509)" opacity="0.73" fill="#FFFFFF" enable-background="new    " width="1.1" height="1"/>
<rect x="394.2" y="478.1" transform="matrix(-0.7071 -0.7071 0.7071 -0.7071 336.4591 1098.428)" opacity="0.73" fill="#FFFFFF" enable-background="new    " width="3.1" height="2.9"/>
<rect x="159.6" y="403.9" transform="matrix(-0.7071 -0.7071 0.7071 -0.7071 -11.4439 805.8696)" opacity="0.73" fill="#FFFFFF" enable-background="new    " width="3.1" height="2.9"/>
<rect x="387.7" y="627.7" transform="matrix(-0.7071 -0.7071 0.7071 -0.7071 219.014 1348.1116)" opacity="0.73" fill="#FFFFFF" enable-background="new    " width="2" height="1.9"/>
<rect x="394.3" y="274.3" transform="matrix(-0.7071 -0.7071 0.7071 -0.7071 479.7055 748.3589)" opacity="0.73" fill="#FFFFFF" enable-background="new    " width="1.1" height="1"/>
<rect x="443.1" y="421.1" transform="matrix(-0.7071 -0.7071 0.7071 -0.7071 461.4456 1038.2549)" opacity="0.73" fill="#FFFFFF" enable-background="new    " width="5.3" height="4.9"/>
<rect x="269.5" y="201.3" transform="matrix(-0.7071 -0.7071 0.7071 -0.7071 319.3828 537.7736)" opacity="0.73" fill="#FFFFFF" enable-background="new    " width="3.1" height="2.9"/>
<rect x="528.1" y="158.9" transform="matrix(-0.7071 -0.7071 0.7071 -0.7071 791.4203 649.5131)" opacity="0.73" fill="#FFFFFF" enable-background="new    " width="4.2" height="3.9"/>
<rect x="278.8" y="580" transform="matrix(-0.7071 -0.7071 0.7071 -0.7071 67.442 1190.8523)" opacity="0.73" fill="#FFFFFF" enable-background="new    " width="3.1" height="2.9"/>
<rect x="16.4" y="614.6" transform="matrix(-0.7071 -0.7071 0.7071 -0.7071 -404.3808 1065.5182)" opacity="0.73" fill="#FFFFFF" enable-background="new    " width="4.2" height="3.9"/>
<rect x="260.1" y="745" transform="matrix(-0.7071 -0.7071 0.7071 -0.7071 -81.6802 1458.073)" opacity="0.73" fill="#FFFFFF" enable-background="new    " width="2" height="1.9"/>
<rect x="92.5" y="530.3" transform="matrix(-0.7071 -0.7071 0.7071 -0.7071 -216.533 971.9151)" opacity="0.73" fill="#FFFFFF" enable-background="new    " width="1.1" height="1"/>
<rect x="499.4" y="551.6" transform="matrix(-0.7071 -0.7071 0.7071 -0.7071 464.1735 1298.3485)" opacity="0.73" fill="#FFFFFF" enable-background="new    " width="3.1" height="2.9"/>
<rect x="427.1" y="399.3" transform="matrix(-0.7071 -0.7071 0.7071 -0.7071 447.3458 984.9752)" opacity="0.73" fill="#FFFFFF" enable-background="new    " width="1.1" height="1"/>
<rect x="87" y="626.6" transform="matrix(-0.7071 -0.7071 0.7071 -0.7071 -293.9666 1132.4576)" opacity="0.73" fill="#FFFFFF" enable-background="new    " width="1.1" height="1"/>
<rect x="397.3" y="569.2" transform="matrix(-0.7071 -0.7071 0.7071 -0.7071 276.3468 1253.823)" opacity="0.73" fill="#FFFFFF" enable-background="new    " width="1.1" height="1"/>
<rect x="236.2" y="291.2" transform="matrix(-0.7071 -0.7071 0.7071 -0.7071 200.0947 670.174)" opacity="0.73" fill="#FFFFFF" enable-background="new    " width="5.3" height="4.9"/>
<rect x="451" y="497" transform="matrix(-0.7071 -0.7071 0.7071 -0.7071 420.68 1172.1929)" opacity="0.73" fill="#FFFFFF" enable-background="new    " width="4.2" height="3.9"/>
<rect x="419.8" y="416.3" transform="matrix(-0.7071 -0.7071 0.7071 -0.7071 424.5676 1012.2875)" opacity="0.73" fill="#FFFFFF" enable-background="new    " width="4.2" height="3.9"/>
<rect x="154.9" y="573.1" transform="matrix(-0.7071 -0.7071 0.7071 -0.7071 -140.1669 1089.1127)" opacity="0.73" fill="#FFFFFF" enable-background="new    " width="1.1" height="1"/>
<rect x="219" y="541.7" transform="matrix(-0.7071 -0.7071 0.7071 -0.7071 -8.1112 1081.879)" opacity="0.73" fill="#FFFFFF" enable-background="new    " width="2" height="1.9"/>
<rect x="139.4" y="235.5" transform="matrix(-0.7071 -0.7071 0.7071 -0.7071 72.021 501.8959)" opacity="0.73" fill="#FFFFFF" enable-background="new    " width="1.1" height="1"/>
<rect x="395.6" y="413.4" transform="matrix(-0.7071 -0.7071 0.7071 -0.7071 385.7781 991.5455)" opacity="0.73" fill="#FFFFFF" enable-background="new    " width="5.3" height="4.9"/>
<rect x="83.5" y="451.6" transform="matrix(-0.7071 -0.7071 0.7071 -0.7071 -174.4994 834.7745)" opacity="0.73" fill="#FFFFFF" enable-background="new    " width="4.2" height="3.9"/>
<rect x="333.6" y="756.6" transform="matrix(-0.7071 -0.7071 0.7071 -0.7071 35.4718 1529.7175)" opacity="0.73" fill="#FFFFFF" enable-background="new    " width="2" height="1.9"/>
<rect x="146.9" y="261.1" transform="matrix(-0.7071 -0.7071 0.7071 -0.7071 69.0214 555.6294)" opacity="0.73" fill="#FFFFFF" enable-background="new    " width="5.3" height="4.9"/>
<rect x="485.1" y="295.9" transform="matrix(-0.7071 -0.7071 0.7071 -0.7071 621.0501 852.894)" opacity="0.73" fill="#FFFFFF" enable-background="new    " width="4.2" height="3.9"/>
<rect x="352.7" y="429" transform="matrix(-0.7071 -0.7071 0.7071 -0.7071 299.7821 984.0963)" opacity="0.73" fill="#FFFFFF" enable-background="new    " width="2" height="1.9"/>
<rect x="137.3" y="183.3" transform="matrix(-0.7071 -0.7071 0.7071 -0.7071 106.9624 414.8613)" opacity="0.73" fill="#FFFFFF" enable-background="new    " width="4.2" height="3.9"/>
<rect x="333.2" y="504.5" transform="matrix(-0.7071 -0.7071 0.7071 -0.7071 214.3014 1101.6909)" opacity="0.73" fill="#FFFFFF" enable-background="new    " width="4.2" height="3.9"/>
<rect x="315.6" y="194.4" transform="matrix(-0.7071 -0.7071 0.7071 -0.7071 402.3184 557.3342)" opacity="0.73" fill="#FFFFFF" enable-background="new    " width="2" height="1.9"/>
<rect x="14.1" y="479.9" transform="matrix(-0.7071 -0.7071 0.7071 -0.7071 -314.2469 831.4737)" opacity="0.73" fill="#FFFFFF" enable-background="new    " width="2" height="1.9"/>
<rect x="409.1" y="184.2" transform="matrix(-0.7071 -0.7071 0.7071 -0.7071 570.3306 608.4424)" opacity="0.73" fill="#FFFFFF" enable-background="new    " width="4.2" height="3.9"/>
<rect x="143" y="666" transform="matrix(-0.7071 -0.7071 0.7071 -0.7071 -224.0464 1244.0437)" opacity="0.73" fill="#FFFFFF" enable-background="new    " width="5.3" height="4.9"/>
<rect x="251.9" y="295.8" transform="matrix(-0.7071 -0.7071 0.7071 -0.7071 221.4653 684.3249)" opacity="0.73" fill="#FFFFFF" enable-background="new    " width="1.1" height="1"/>
</svg>
