 <svg width="45" height="48" viewBox="0 0 45 48"  xmlns="http://www.w3.org/2000/svg"><path fill-rule="evenodd" clip-rule="evenodd" d="M27 9H24V0H21V9H18V21H15V27H12V30H9V33H6V36H3V30H0V48H3V45H6V42H9V39H12H15V38H18V42H21V48H24V42H27V38H30V39H33H36V42H39V45H42V48H45V30H42V36H39V33H36V30H33V27H30V21H27V9ZM27 33V27H24V24H21V27H18V33H21V30H24V33H27Z" fill="white" />  <path fill-rule="evenodd" clip-rule="evenodd" d="M21 24H24V27H27V33H24V30H21V33H18V27H21V24Z" fill="#FF4637" /><rect x="9" y="15" width="3" height="6" fill="#FF4637" /><rect x="33" y="15" width="3" height="6" fill="#FF4637" /><rect x="42" y="24" width="3" height="6" fill="#FF4637" /><rect y="24" width="3" height="6" fill="#FF4637" /></svg>
