<?xml version="1.0" encoding="utf-8"?>
<!-- Generator: Adobe Illustrator 18.1.1, SVG Export Plug-In . SVG Version: 6.00 Build 0)  -->
<svg version="1.1" id="Layer_1" xmlns="http://www.w3.org/2000/svg" xmlns:xlink="http://www.w3.org/1999/xlink" x="0px" y="0px"
	 viewBox="-274 373 26.8 42" enable-background="new -274 373 26.8 42" xml:space="preserve">
<rect x="-241" y="397" fill="#FF4637" width="3" height="6"/>
<rect x="-277" y="387" fill="#FF4637" width="3" height="6"/>
<polygon points="-250,379 -250,400 -253,400 -253,394 -256,394 -256,382 -259,382 -259,373 -262,373 -262,382 -265,382 -265,394 
	-268,394 -268,400 -271,400 -271,379 -274,379 -274,403 -274,406 -274,412 -271,412 -268,412 -268,411 -265,411 -265,415 -256,415 
	-256,411 -253,411 -253,412 -250,412 -247,412 -247,406 -247,403 -247,379 "/>
<path fill="#FF4637" d="M-262,397h3v3h3v6h-3v-3h-3v3h-3v-6h3V397z"/>
</svg>
