
<svg version="1.1" xmlns="http://www.w3.org/2000/svg" xmlns:xlink="http://www.w3.org/1999/xlink" x="0px" y="0px"
	 viewBox="-296 386 18 22" enable-background="new -296 386 18 22" xml:space="preserve">
<path fill="#FFFFFF" d="M-280,396v2h-2v-4h-2v-4h-2v-4h-2l0,4h-2v4h-2v4h-2v-2h-2v4v2v4h2h2v-0.7h2v2.7h6v-2.7h2v0.7h2.1h1.9v-4v-1
	v-1v-4H-280z"/>
<polygon fill="#FF0000" points="-286,396.5 -286,398.7 -288,398.7 -288,396.5 -290.1,396.5 -290.1,398.7 -290.1,401 -288,401 
	-288,403.2 -286,403.2 -286,401 -283.9,401 -283.9,398.7 -283.9,396.5 "/>
</svg>
